<svg width="93" height="84" viewBox="0 0 93 84" fill="none" xmlns="http://www.w3.org/2000/svg">
<rect width="93" height="84" fill="#E5E5E5"/>
<rect x="-3857" y="-67240" width="31369" height="83337" stroke="black" stroke-width="40"/>
<rect width="1920" height="1080" transform="translate(-603 -373)" fill="white"/>
<rect x="-15" y="-9" width="745" height="102" rx="8" fill="#FAFAFA"/>
<path d="M47.6283 0.184971L44.6023 0.970312L7.32063 10.6459L4.29457 11.4312C2.82576 11.8142 1.56788 12.7679 0.796883 14.0831C0.0258909 15.3982 -0.195244 16.9675 0.181994 18.4465L13.3036 69.6543C13.6842 71.1325 14.6318 72.3984 15.9386 73.1743C17.2455 73.9503 18.8048 74.1728 20.2744 73.7932L20.2822 73.7911L63.6003 62.5489L63.6082 62.5469C65.077 62.1639 66.3348 61.2102 67.1058 59.8951C67.8768 58.5799 68.098 57.0106 67.7207 55.5316L54.5991 4.32384C54.2186 2.84565 53.2709 1.57972 51.9641 0.8038C50.6573 0.0278784 49.098 -0.194673 47.6283 0.184971Z" fill="#F0F1F3"/>
<path d="M48.0398 1.78909L44.4556 2.71927L8.29007 12.1052L4.70597 13.0354C3.66 13.3081 2.76422 13.9872 2.21518 14.9238C1.66613 15.8604 1.50865 16.9779 1.77729 18.0311L14.8989 69.2389C15.1699 70.2915 15.8448 71.193 16.7754 71.7456C17.706 72.2981 18.8164 72.4566 19.863 72.1862L19.8708 72.1842L63.1889 60.942L63.1968 60.94C64.2427 60.6672 65.1385 59.9881 65.6875 59.0515C66.2366 58.115 66.394 56.9975 66.1254 55.9442L53.0037 4.73647C52.7328 3.68383 52.0579 2.78234 51.1273 2.22979C50.1967 1.67724 49.0863 1.51875 48.0398 1.78909Z" fill="white"/>
<path d="M45.3334 18.372L23.4198 24.0592C23.1751 24.1227 22.9153 24.0858 22.6976 23.9565C22.4799 23.8273 22.3221 23.6163 22.259 23.3699C22.1959 23.1236 22.2326 22.8622 22.361 22.6431C22.4895 22.424 22.6991 22.2652 22.9439 22.2017L44.8574 16.5145C45.1021 16.4513 45.3617 16.4884 45.5792 16.6176C45.7968 16.7469 45.9544 16.9578 46.0175 17.204C46.0805 17.4502 46.0439 17.7115 45.9157 17.9305C45.7874 18.1495 45.578 18.3083 45.3334 18.372Z" fill="#F0F1F3"/>
<path d="M49.9433 20.5168L24.223 27.1919C23.9782 27.2554 23.7184 27.2185 23.5007 27.0892C23.283 26.9599 23.1253 26.749 23.0622 26.5026C22.9991 26.2563 23.0358 25.9949 23.1642 25.7758C23.2926 25.5567 23.5023 25.3979 23.747 25.3344L49.4673 18.6593C49.7121 18.5958 49.9719 18.6327 50.1896 18.762C50.4073 18.8912 50.565 19.1022 50.6281 19.3485C50.6913 19.5948 50.6546 19.8563 50.5261 20.0754C50.3977 20.2945 50.188 20.4532 49.9433 20.5168Z" fill="#F0F1F3"/>
<path d="M48.9329 32.4191L27.0193 38.1063C26.8981 38.1377 26.772 38.1448 26.6481 38.1272C26.5241 38.1096 26.4049 38.0676 26.2971 38.0036C26.1893 37.9396 26.0951 37.8549 26.0198 37.7542C25.9446 37.6536 25.8898 37.539 25.8585 37.417C25.8272 37.2951 25.8202 37.1681 25.8377 37.0434C25.8552 36.9187 25.8969 36.7987 25.9605 36.6902C26.0241 36.5817 26.1083 36.4869 26.2083 36.4111C26.3083 36.3354 26.4222 36.2802 26.5434 36.2488L48.4569 30.5616C48.5781 30.5302 48.7043 30.5231 48.8282 30.5407C48.9521 30.5583 49.0714 30.6003 49.1792 30.6643C49.287 30.7283 49.3812 30.813 49.4564 30.9137C49.5317 31.0143 49.5865 31.1289 49.6178 31.2509C49.649 31.3728 49.6561 31.4998 49.6386 31.6245C49.6211 31.7492 49.5793 31.8692 49.5157 31.9777C49.4521 32.0862 49.3679 32.181 49.2679 32.2568C49.1679 32.3325 49.0541 32.3877 48.9329 32.4191Z" fill="#F0F1F3"/>
<path d="M53.5428 34.5636L27.8225 41.2387C27.7013 41.2702 27.5751 41.2773 27.4512 41.2597C27.3273 41.2421 27.208 41.2001 27.1002 41.1361C26.9924 41.0721 26.8982 40.9873 26.823 40.8867C26.7477 40.786 26.6929 40.6715 26.6617 40.5495C26.6304 40.4276 26.6233 40.3006 26.6408 40.1759C26.6583 40.0512 26.7001 39.9311 26.7637 39.8227C26.8273 39.7142 26.9115 39.6194 27.0115 39.5436C27.1115 39.4679 27.2253 39.4127 27.3465 39.3813L53.0668 32.7062C53.3116 32.6426 53.5714 32.6796 53.7891 32.8088C54.0068 32.9381 54.1645 33.1491 54.2276 33.3954C54.2907 33.6417 54.254 33.9032 54.1256 34.1223C53.9972 34.3414 53.7875 34.5001 53.5428 34.5636Z" fill="#F0F1F3"/>
<path d="M52.5324 46.466L30.6188 52.1531C30.3741 52.2165 30.1144 52.1794 29.8969 52.0501C29.6793 51.9209 29.5217 51.71 29.4586 51.4637C29.3955 51.2175 29.4321 50.9562 29.5604 50.7372C29.6888 50.5181 29.8982 50.3593 30.1428 50.2957L52.0564 44.6085C52.3011 44.545 52.5609 44.5819 52.7786 44.7112C52.9963 44.8404 53.1541 45.0514 53.2172 45.2977C53.2803 45.5441 53.2436 45.8055 53.1152 46.0246C52.9868 46.2437 52.7771 46.4025 52.5324 46.466Z" fill="#F0F1F3"/>
<path d="M57.1422 48.6105L31.4219 55.2856C31.3007 55.3172 31.1745 55.3244 31.0505 55.3069C30.9265 55.2893 30.8071 55.2474 30.6992 55.1834C30.5913 55.1194 30.4971 55.0346 30.4217 54.934C30.3464 54.8333 30.2916 54.7186 30.2603 54.5966C30.229 54.4746 30.222 54.3475 30.2395 54.2227C30.257 54.098 30.2988 53.9779 30.3625 53.8694C30.4262 53.7609 30.5105 53.666 30.6106 53.5903C30.7107 53.5146 30.8247 53.4595 30.946 53.4282L56.6663 46.753C56.911 46.6895 57.1708 46.7265 57.3885 46.8557C57.6062 46.985 57.764 47.196 57.8271 47.4423C57.8902 47.6886 57.8535 47.9501 57.7251 48.1691C57.5966 48.3882 57.387 48.547 57.1422 48.6105Z" fill="#F0F1F3"/>
<path d="M19.6788 29.8913L11.9238 31.9039C11.8065 31.9343 11.682 31.9165 11.5776 31.8545C11.4733 31.7926 11.3976 31.6915 11.3672 31.5735L9.58706 24.6263C9.55694 24.5082 9.57459 24.3829 9.63616 24.2779C9.69772 24.1729 9.79816 24.0967 9.91545 24.0662L17.6705 22.0535C17.7878 22.0232 17.9123 22.041 18.0167 22.1029C18.121 22.1649 18.1967 22.266 18.2271 22.384L20.0072 29.3311C20.0374 29.4492 20.0197 29.5745 19.9581 29.6796C19.8966 29.7846 19.7961 29.8607 19.6788 29.8913Z" fill="#F0F1F3"/>
<path d="M23.2783 43.9382L15.5233 45.9508C15.406 45.9811 15.2815 45.9634 15.1771 45.9014C15.0728 45.8394 14.9971 45.7384 14.9667 45.6203L13.1865 38.6732C13.1564 38.5551 13.1741 38.4298 13.2356 38.3248C13.2972 38.2198 13.3977 38.1436 13.5149 38.113L21.2699 36.1004C21.3873 36.0701 21.5118 36.0878 21.6162 36.1498C21.7205 36.2118 21.7962 36.3129 21.8266 36.4309L23.6067 43.378C23.6368 43.4961 23.6192 43.6214 23.5576 43.7264C23.496 43.8314 23.3956 43.9076 23.2783 43.9382Z" fill="#F0F1F3"/>
<path d="M26.8778 57.985L19.1228 59.9977C19.0055 60.028 18.8809 60.0102 18.7766 59.9483C18.6722 59.8863 18.5966 59.7852 18.5662 59.6672L16.786 52.7201C16.7559 52.602 16.7736 52.4767 16.8351 52.3717C16.8967 52.2666 16.9971 52.1905 17.1144 52.1599L24.8694 50.1473C24.9868 50.117 25.1113 50.1347 25.2156 50.1967C25.32 50.2586 25.3957 50.3597 25.426 50.4778L27.2062 57.4249C27.2363 57.543 27.2187 57.6683 27.1571 57.7733C27.0955 57.8783 26.9951 57.9545 26.8778 57.985Z" fill="#F0F1F3"/>
<path d="M77.8514 13.1641H33.1C31.5827 13.1658 30.128 13.7731 29.0551 14.8529C27.9822 15.9326 27.3787 17.3966 27.377 18.9236V71.8067C27.3787 73.3337 27.9822 74.7976 29.0551 75.8774C30.128 76.9571 31.5827 77.5645 33.1 77.5662H77.8514C79.3687 77.5645 80.8234 76.9571 81.8963 75.8774C82.9692 74.7976 83.5727 73.3337 83.5744 71.8067V18.9236C83.5727 17.3966 82.9692 15.9326 81.8963 14.8529C80.8234 13.7731 79.3687 13.1658 77.8514 13.1641Z" fill="#F0F1F3"/>
<path d="M77.8515 14.8203H33.1C32.0194 14.8215 30.9835 15.254 30.2195 16.023C29.4555 16.7919 29.0257 17.8344 29.0245 18.9218V71.8049C29.0257 72.8923 29.4555 73.9348 30.2195 74.7037C30.9835 75.4726 32.0194 75.9051 33.1 75.9063H77.8515C78.932 75.9051 79.9678 75.4726 80.7319 74.7037C81.4959 73.9348 81.9257 72.8923 81.9269 71.8049V18.9218C81.9257 17.8344 81.4959 16.7919 80.7319 16.023C79.9678 15.2541 78.932 14.8215 77.8515 14.8203Z" fill="white"/>
<path d="M71.1163 43.8792H48.4858C48.3606 43.8793 48.2366 43.8546 48.1208 43.8065C48.0051 43.7583 47.8999 43.6877 47.8113 43.5986C47.7226 43.5096 47.6523 43.4038 47.6044 43.2873C47.5564 43.1709 47.5317 43.0461 47.5317 42.9201C47.5317 42.794 47.5564 42.6692 47.6044 42.5528C47.6523 42.4363 47.7226 42.3306 47.8113 42.2415C47.8999 42.1524 48.0051 42.0818 48.1208 42.0336C48.2366 41.9855 48.3606 41.9608 48.4858 41.9609H71.1163C71.3689 41.9612 71.611 42.0624 71.7895 42.2422C71.968 42.4221 72.0683 42.6659 72.0683 42.9201C72.0683 43.1742 71.968 43.418 71.7895 43.5979C71.611 43.7777 71.3689 43.8789 71.1163 43.8792Z" fill="#F0F1F3"/>
<path d="M75.0476 47.1175H48.4858C48.3606 47.1176 48.2366 47.0929 48.1208 47.0447C48.0051 46.9966 47.8999 46.926 47.8113 46.8369C47.7226 46.7478 47.6523 46.6421 47.6044 46.5256C47.5564 46.4092 47.5317 46.2844 47.5317 46.1583C47.5317 46.0323 47.5564 45.9075 47.6044 45.791C47.6523 45.6746 47.7226 45.5688 47.8113 45.4798C47.8999 45.3907 48.0051 45.3201 48.1208 45.2719C48.2366 45.2238 48.3606 45.1991 48.4858 45.1992H75.0476C75.3003 45.1992 75.5427 45.3003 75.7215 45.4801C75.9002 45.66 76.0006 45.904 76.0006 46.1583C76.0006 46.4127 75.9002 46.6567 75.7215 46.8365C75.5427 47.0164 75.3003 47.1175 75.0476 47.1175Z" fill="#F0F1F3"/>
<path d="M71.1163 58.387H48.4858C48.3606 58.3871 48.2366 58.3624 48.1208 58.3143C48.0051 58.2661 47.8999 58.1955 47.8113 58.1064C47.7226 58.0174 47.6523 57.9116 47.6044 57.7952C47.5564 57.6787 47.5317 57.5539 47.5317 57.4279C47.5317 57.3018 47.5564 57.177 47.6044 57.0606C47.6523 56.9441 47.7226 56.8384 47.8113 56.7493C47.8999 56.6602 48.0051 56.5896 48.1208 56.5415C48.2366 56.4933 48.3606 56.4686 48.4858 56.4688H71.1163C71.3691 56.4688 71.6115 56.5698 71.7902 56.7497C71.969 56.9295 72.0694 57.1735 72.0694 57.4279C72.0694 57.6822 71.969 57.9262 71.7902 58.1061C71.6115 58.2859 71.3691 58.387 71.1163 58.387Z" fill="#F0F1F3"/>
<path d="M75.0476 61.6253H48.4858C48.3606 61.6254 48.2366 61.6007 48.1208 61.5526C48.0051 61.5044 47.8999 61.4338 47.8113 61.3447C47.7226 61.2557 47.6523 61.1499 47.6044 61.0334C47.5564 60.917 47.5317 60.7922 47.5317 60.6662C47.5317 60.5401 47.5564 60.4153 47.6044 60.2989C47.6523 60.1824 47.7226 60.0766 47.8113 59.9876C47.8999 59.8985 48.0051 59.8279 48.1208 59.7797C48.2366 59.7316 48.3606 59.7069 48.4858 59.707H75.0476C75.1728 59.7069 75.2969 59.7316 75.4126 59.7797C75.5284 59.8279 75.6336 59.8985 75.7222 59.9876C75.8108 60.0766 75.8811 60.1824 75.929 60.2989C75.977 60.4153 76.0017 60.5401 76.0017 60.6662C76.0017 60.7922 75.977 60.917 75.929 61.0334C75.8811 61.1499 75.8108 61.2557 75.7222 61.3447C75.6336 61.4338 75.5284 61.5044 75.4126 61.5526C75.2969 61.6007 75.1728 61.6254 75.0476 61.6253Z" fill="#F0F1F3"/>
<path d="M43.4164 48.5864H35.4077C35.2866 48.5863 35.1704 48.5378 35.0847 48.4515C34.9991 48.3653 34.9509 48.2484 34.9507 48.1265V40.9521C34.9509 40.8302 34.9991 40.7133 35.0847 40.627C35.1704 40.5408 35.2866 40.4923 35.4077 40.4922H43.4164C43.5376 40.4923 43.6538 40.5408 43.7394 40.627C43.8251 40.7133 43.8733 40.8302 43.8734 40.9521V48.1265C43.8733 48.2484 43.8251 48.3653 43.7394 48.4515C43.6538 48.5378 43.5376 48.5863 43.4164 48.5864Z" fill="#F0F1F3"/>
<path d="M43.4164 63.0942H35.4077C35.2866 63.0941 35.1704 63.0456 35.0847 62.9594C34.9991 62.8731 34.9509 62.7562 34.9507 62.6343V55.4599C34.9509 55.338 34.9991 55.2211 35.0847 55.1349C35.1704 55.0486 35.2866 55.0001 35.4077 55H43.4164C43.5376 55.0001 43.6538 55.0486 43.7394 55.1349C43.8251 55.2211 43.8733 55.338 43.8734 55.4599V62.6343C43.8733 62.7562 43.8251 62.8731 43.7394 62.9594C43.6538 63.0456 43.5376 63.0941 43.4164 63.0942Z" fill="#F0F1F3"/>
<path d="M71.1414 27.7307H54.4569C54.2041 27.7307 53.9617 27.6297 53.783 27.4498C53.6043 27.2699 53.5038 27.026 53.5038 26.7716C53.5038 26.5172 53.6043 26.2733 53.783 26.0934C53.9617 25.9135 54.2041 25.8125 54.4569 25.8125H71.1414C71.3942 25.8125 71.6366 25.9135 71.8153 26.0934C71.994 26.2733 72.0945 26.5172 72.0945 26.7716C72.0945 27.026 71.994 27.2699 71.8153 27.4498C71.6366 27.6297 71.3942 27.7307 71.1414 27.7307Z" fill="#D3D4D8"/>
<path d="M75.0727 30.969H54.4569C54.3317 30.969 54.2078 30.9442 54.0922 30.896C53.9765 30.8478 53.8715 30.7772 53.783 30.6881C53.6945 30.599 53.6243 30.4933 53.5764 30.3769C53.5285 30.2606 53.5038 30.1358 53.5038 30.0099C53.5038 29.8839 53.5285 29.7592 53.5764 29.6429C53.6243 29.5265 53.6945 29.4208 53.783 29.3317C53.8715 29.2426 53.9765 29.172 54.0922 29.1238C54.2078 29.0756 54.3317 29.0508 54.4569 29.0508H75.0727C75.3254 29.0508 75.5678 29.1518 75.7466 29.3317C75.9253 29.5116 76.0257 29.7555 76.0257 30.0099C76.0257 30.2643 75.9253 30.5082 75.7466 30.6881C75.5678 30.868 75.3254 30.969 75.0727 30.969Z" fill="#D3D4D8"/>
<path d="M50.7643 34.8916H35.3826C35.2615 34.8915 35.1453 34.843 35.0597 34.7568C34.974 34.6706 34.9258 34.5537 34.9257 34.4317V22.3505C34.9258 22.2286 34.974 22.1117 35.0597 22.0255C35.1453 21.9393 35.2615 21.8908 35.3826 21.8906H50.7643C50.8855 21.8908 51.0017 21.9393 51.0873 22.0255C51.173 22.1117 51.2212 22.2286 51.2213 22.3505V34.4317C51.2212 34.5537 51.173 34.6706 51.0873 34.7568C51.0017 34.843 50.8855 34.8915 50.7643 34.8916Z" fill="#E60100"/>
<path d="M82.4471 52.0276C88.2169 52.0276 92.8942 47.3204 92.8942 41.5138C92.8942 35.7072 88.2169 31 82.4471 31C76.6773 31 72 35.7072 72 41.5138C72 47.3204 76.6773 52.0276 82.4471 52.0276Z" fill="#E60100"/>
<path d="M87.4434 40.1416H83.8097V36.4846C83.8097 36.1209 83.6661 35.7721 83.4105 35.5149C83.155 35.2578 82.8084 35.1133 82.447 35.1133C82.0856 35.1133 81.739 35.2578 81.4834 35.5149C81.2279 35.7721 81.0843 36.1209 81.0843 36.4846V40.1416H77.4506C77.0892 40.1416 76.7426 40.2861 76.487 40.5433C76.2315 40.8005 76.0879 41.1493 76.0879 41.513C76.0879 41.8767 76.2315 42.2255 76.487 42.4827C76.7426 42.7399 77.0892 42.8844 77.4506 42.8844H81.0843V46.5413C81.0843 46.905 81.2279 47.2539 81.4834 47.511C81.739 47.7682 82.0856 47.9127 82.447 47.9127C82.8084 47.9127 83.155 47.7682 83.4105 47.511C83.6661 47.2539 83.8097 46.905 83.8097 46.5413V42.8844H87.4434C87.8048 42.8844 88.1514 42.7399 88.407 42.4827C88.6625 42.2255 88.8061 41.8767 88.8061 41.513C88.8061 41.1493 88.6625 40.8005 88.407 40.5433C88.1514 40.2861 87.8048 40.1416 87.4434 40.1416Z" fill="white"/>
</svg>