<svg width="32" height="32" viewBox="0 0 32 32" fill="none" xmlns="http://www.w3.org/2000/svg">
<path d="M7.02541 12.9999C7.02375 11.8139 7.25685 10.6393 7.71126 9.54386C8.16567 8.44838 8.83242 7.45367 9.67305 6.61707C10.5137 5.78047 11.5116 5.11852 12.6093 4.66938C13.7069 4.22025 14.8826 3.99281 16.0686 4.00017C21.0173 4.03696 24.9756 8.15034 24.9756 13.1129V13.9999C24.9756 18.4769 25.9123 21.0748 26.7373 22.4947C26.8261 22.6464 26.8734 22.8189 26.8744 22.9947C26.8753 23.1705 26.8299 23.3435 26.7426 23.4962C26.6554 23.6488 26.5294 23.7758 26.3775 23.8642C26.2255 23.9527 26.0529 23.9995 25.8771 23.9999H6.12298C5.94713 23.9995 5.77451 23.9526 5.62254 23.8642C5.47056 23.7757 5.3446 23.6487 5.25737 23.496C5.17014 23.3434 5.12472 23.1704 5.12569 22.9945C5.12666 22.8187 5.17399 22.6462 5.2629 22.4945C6.08831 21.0745 7.0254 18.4766 7.0254 13.9999L7.02541 12.9999Z" stroke="#6D757D" stroke-linecap="round" stroke-linejoin="round"/>
<path d="M12 24V25C12 26.0609 12.4214 27.0783 13.1716 27.8284C13.9217 28.5786 14.9391 29 16 29C17.0609 29 18.0783 28.5786 18.8284 27.8284C19.5786 27.0783 20 26.0609 20 25V24" stroke="#6D757D" stroke-linecap="round" stroke-linejoin="round"/>
</svg>
