<svg width="16" height="16" viewBox="0 0 16 16" fill="none" xmlns="http://www.w3.org/2000/svg">
<path d="M13.5 4.5H2.5C2.22386 4.5 2 4.72386 2 5V13C2 13.2761 2.22386 13.5 2.5 13.5H13.5C13.7761 13.5 14 13.2761 14 13V5C14 4.72386 13.7761 4.5 13.5 4.5Z" stroke="#617B8E" stroke-linecap="round" stroke-linejoin="round"/>
<path d="M10.5 4.5V3.5C10.5 3.23478 10.3946 2.98043 10.2071 2.79289C10.0196 2.60536 9.76522 2.5 9.5 2.5H6.5C6.23478 2.5 5.98043 2.60536 5.79289 2.79289C5.60536 2.98043 5.5 3.23478 5.5 3.5V4.5" stroke="#617B8E" stroke-linecap="round" stroke-linejoin="round"/>
<path d="M2 10H14" stroke="#617B8E" stroke-linecap="round" stroke-linejoin="round"/>
</svg>