<svg width="32" height="32" viewBox="0 0 32 32" fill="none" xmlns="http://www.w3.org/2000/svg">
<path d="M28.7383 5.33358C28.6171 5.3211 28.495 5.3211 28.3739 5.33358H3.48497C3.32545 5.33604 3.16699 5.35996 3.01385 5.40469L15.8583 18.1958L28.7383 5.33358Z" fill="#29578A"/>
<path d="M30.0535 6.56885L17.1113 19.4577C16.7782 19.7889 16.3276 19.9747 15.8579 19.9747C15.3883 19.9747 14.9377 19.7889 14.6046 19.4577L1.77792 6.66663C1.73849 6.81155 1.71758 6.96089 1.7157 7.11107V24.8888C1.7157 25.3603 1.903 25.8125 2.2364 26.1459C2.5698 26.4793 3.02198 26.6666 3.49348 26.6666H28.3824C28.8539 26.6666 29.306 26.4793 29.6394 26.1459C29.9728 25.8125 30.1601 25.3603 30.1601 24.8888V7.11107C30.1531 6.92587 30.1171 6.74292 30.0535 6.56885ZM4.71125 24.8888H3.4757V23.6177L9.93792 17.2088L11.1913 18.4622L4.71125 24.8888ZM28.3646 24.8888H27.1201L20.6401 18.4622L21.8935 17.2088L28.3557 23.6177L28.3646 24.8888Z" fill="#29578A"/>
</svg>
