<svg width="24" height="24" viewBox="0 0 24 24" fill="none" xmlns="http://www.w3.org/2000/svg">
<path d="M12 21C16.9706 21 21 16.9706 21 12C21 7.02944 16.9706 3 12 3C7.02944 3 3 7.02944 3 12C3 16.9706 7.02944 21 12 21Z" stroke="white" stroke-miterlimit="10"/>
<path d="M3.51221 9H20.487" stroke="white" stroke-linecap="round" stroke-linejoin="round"/>
<path d="M3.5127 15H20.4874" stroke="white" stroke-linecap="round" stroke-linejoin="round"/>
<path d="M12 20.757C14.0711 20.757 15.75 16.8358 15.75 11.9986C15.75 7.1615 14.0711 3.24023 12 3.24023C9.92893 3.24023 8.25 7.1615 8.25 11.9986C8.25 16.8358 9.92893 20.757 12 20.757Z" stroke="white" stroke-miterlimit="10"/>
</svg>
