<svg width="32" height="32" viewBox="0 0 32 32" fill="none" xmlns="http://www.w3.org/2000/svg">
<circle cx="16" cy="16" r="16" fill="#F0F1F3"/>
<path d="M16 25C20.9706 25 25 20.9706 25 16C25 11.0294 20.9706 7 16 7C11.0294 7 7 11.0294 7 16C7 20.9706 11.0294 25 16 25Z" stroke="#29578A" stroke-miterlimit="10"/>
<path d="M7.51172 13H24.4866" stroke="#29578A" stroke-linecap="round" stroke-linejoin="round"/>
<path d="M7.51172 19H24.4865" stroke="#29578A" stroke-linecap="round" stroke-linejoin="round"/>
<path d="M16 24.759C18.0711 24.759 19.75 20.8377 19.75 16.0006C19.75 11.1635 18.0711 7.24219 16 7.24219C13.9289 7.24219 12.25 11.1635 12.25 16.0006C12.25 20.8377 13.9289 24.759 16 24.759Z" stroke="#29578A" stroke-miterlimit="10"/>
</svg>