<svg width="127" height="127" viewBox="0 0 127 127" fill="none" xmlns="http://www.w3.org/2000/svg">
<rect width="127" height="127" fill="#E5E5E5"/>
<rect width="1920" height="1080" transform="translate(-895 -354)" fill="white"/>
<circle cx="63.5" cy="63.5" r="63.5" fill="#FAFAFA"/>
<circle r="19.5" transform="matrix(-1 0 0 1 107.5 19.5)" fill="#B9D4E8"/>
<path d="M101.106 25.8943C100.243 25.0314 100.815 23.2198 100.376 22.1584C99.9207 21.058 98.25 20.1723 98.25 19C98.25 17.8276 99.9207 16.942 100.376 15.8416C100.815 14.7801 100.243 12.9686 101.106 12.1057C101.969 11.2428 103.78 11.8151 104.842 11.3759C105.942 10.9207 106.828 9.25 108 9.25C109.172 9.25 110.058 10.9207 111.158 11.376C112.22 11.8152 114.031 11.2428 114.894 12.1057C115.757 12.9686 115.185 14.7802 115.624 15.8416C116.079 16.942 117.75 17.8277 117.75 19C117.75 20.1724 116.079 21.058 115.624 22.1584C115.185 23.2199 115.757 25.0314 114.894 25.8943C114.031 26.7572 112.22 26.1849 111.158 26.6241C110.058 27.0793 109.172 28.75 108 28.75C106.828 28.75 105.942 27.0793 104.842 26.624C103.78 26.1848 101.969 26.7572 101.106 25.8943Z" stroke="white" stroke-linecap="round" stroke-linejoin="round"/>
<path d="M112.125 16.75L106.625 22L103.875 19.375" stroke="white" stroke-linecap="round" stroke-linejoin="round"/>
<path d="M56.3811 61.8692C55.0321 58.5044 54.8862 54.7769 55.9682 51.3169C57.0502 47.8569 59.2936 44.8766 62.3193 42.8797C65.345 40.8829 68.9674 39.992 72.5741 40.3576C76.1809 40.7232 79.5508 42.323 82.1142 44.8864C84.6776 47.4498 86.2773 50.8197 86.643 54.4264C87.0086 58.0332 86.1177 61.6556 84.1208 64.6813C82.1239 67.707 79.1436 69.9504 75.6836 71.0324C72.2236 72.1143 68.4962 71.9685 65.1313 70.6195L65.1314 70.6191L62.251 73.4996H57.001V78.7496H51.751V83.9996H43.001V75.2496L56.3815 61.8691L56.3811 61.8692Z" stroke="#395264" stroke-linecap="round" stroke-linejoin="round"/>
<path opacity="0.5" d="M75.375 52.5C75.8582 52.5 76.25 52.1082 76.25 51.625C76.25 51.1418 75.8582 50.75 75.375 50.75C74.8918 50.75 74.5 51.1418 74.5 51.625C74.5 52.1082 74.8918 52.5 75.375 52.5Z" stroke="#395264" stroke-linecap="round" stroke-linejoin="round"/>
<path d="M75.375 54.25C76.8247 54.25 78 53.0747 78 51.625C78 50.1753 76.8247 49 75.375 49C73.9253 49 72.75 50.1753 72.75 51.625C72.75 53.0747 73.9253 54.25 75.375 54.25Z" fill="#395264"/>
<rect x="-6340" y="-2254.71" width="31369" height="23876.7" stroke="black" stroke-width="40"/>
</svg>