<svg width="127" height="127" viewBox="0 0 127 127" fill="none" xmlns="http://www.w3.org/2000/svg">
<rect width="127" height="127" fill="#E5E5E5"/>
<rect width="1920" height="1080" transform="translate(-895 -347)" fill="white"/>
<circle cx="63.5" cy="63.5" r="63.5" fill="#FAFAFA"/>
<path d="M81.5 54.25H46.5C45.5335 54.25 44.75 55.0335 44.75 56V80.5C44.75 81.4665 45.5335 82.25 46.5 82.25H81.5C82.4665 82.25 83.25 81.4665 83.25 80.5V56C83.25 55.0335 82.4665 54.25 81.5 54.25Z" stroke="#395264" stroke-linecap="round" stroke-linejoin="round"/>
<path d="M56.125 54.25V46.375C56.125 44.2864 56.9547 42.2834 58.4315 40.8065C59.9084 39.3297 61.9114 38.5 64 38.5C66.0886 38.5 68.0916 39.3297 69.5685 40.8065C71.0453 42.2834 71.875 44.2864 71.875 46.375" stroke="#395264" stroke-linecap="round" stroke-linejoin="round"/>
<path d="M64 70.875C65.4497 70.875 66.625 69.6997 66.625 68.25C66.625 66.8003 65.4497 65.625 64 65.625C62.5503 65.625 61.375 66.8003 61.375 68.25C61.375 69.6997 62.5503 70.875 64 70.875Z" fill="#395264"/>
<rect x="-8303" y="-4750.71" width="31369" height="23876.7" stroke="black" stroke-width="40"/>
</svg>