<svg width="130" height="127" viewBox="0 0 130 127" fill="none" xmlns="http://www.w3.org/2000/svg">
<circle cx="63.5" cy="63.5" r="63.5" fill="#F0F1F3"/>
<circle r="19.5" transform="matrix(-1 0 0 1 110.5 23.5)" fill="#B9D4E8"/>
<path d="M104.106 29.8943C103.243 29.0314 103.815 27.2198 103.376 26.1584C102.921 25.058 101.25 24.1723 101.25 23C101.25 21.8276 102.921 20.942 103.376 19.8416C103.815 18.7801 103.243 16.9686 104.106 16.1057C104.969 15.2428 106.78 15.8151 107.842 15.3759C108.942 14.9207 109.828 13.25 111 13.25C112.172 13.25 113.058 14.9207 114.158 15.376C115.22 15.8152 117.031 15.2428 117.894 16.1057C118.757 16.9686 118.185 18.7802 118.624 19.8416C119.079 20.942 120.75 21.8277 120.75 23C120.75 24.1724 119.079 25.058 118.624 26.1584C118.185 27.2199 118.757 29.0314 117.894 29.8943C117.031 30.7572 115.22 30.1849 114.158 30.6241C113.058 31.0793 112.172 32.75 111 32.75C109.828 32.75 108.942 31.0793 107.842 30.624C106.78 30.1848 104.969 30.7572 104.106 29.8943Z" stroke="white" stroke-linecap="round" stroke-linejoin="round"/>
<path d="M115.125 20.75L109.625 26L106.875 23.375" stroke="white" stroke-linecap="round" stroke-linejoin="round"/>
<path d="M43 57V79.75C43 80.2141 43.1844 80.6592 43.5126 80.9874C43.8408 81.3156 44.2859 81.5 44.75 81.5H83.25C83.7141 81.5 84.1592 81.3156 84.4874 80.9874C84.8156 80.6592 85 80.2141 85 79.75V57L64 43L43 57Z" stroke="black" stroke-linecap="round" stroke-linejoin="round"/>
<path d="M60.1817 69.25L43.5396 81.0054" stroke="black" stroke-linecap="round" stroke-linejoin="round"/>
<path d="M84.4608 81.0055L67.8184 69.25" stroke="black" stroke-linecap="round" stroke-linejoin="round"/>
<path d="M85 57L67.8183 69.25H60.1817L43 57" stroke="black" stroke-linecap="round" stroke-linejoin="round"/>
</svg>
