<svg width="32" height="32" viewBox="0 0 32 32" fill="none" xmlns="http://www.w3.org/2000/svg">
<g clip-path="url(#clip0_1889_60077)">
<path d="M0.00164795 3.60562V28.0939L18.6308 32V0L0.00164795 3.60562ZM9.38709 21.5449C3.46496 21.1629 4.0749 10.4882 9.52534 10.4034C15.3643 10.7894 14.7915 21.4597 9.38709 21.5449ZM9.47246 12.4935C6.35252 12.7101 6.49221 19.3939 9.42434 19.4476C12.5308 19.2474 12.3484 12.5454 9.47246 12.4935ZM21.805 16.7506C22.0862 16.9573 22.4251 16.7506 22.4251 16.7506C22.0873 16.9573 31.652 10.6042 31.652 10.6042V22.1086C31.652 23.3609 30.8503 23.8861 29.9488 23.8861H19.8074L19.808 15.3792L21.805 16.7506ZM19.8085 6.78463V13.044L21.996 14.4213C22.0536 14.4382 22.1786 14.4394 22.2363 14.4213L31.6506 8.07419C31.6506 7.32306 30.95 6.78463 30.5545 6.78463H19.8085Z" fill="#29578A"/>
</g>
<defs>
<clipPath id="clip0_1889_60077">
<rect width="31.6907" height="32" fill="white"/>
</clipPath>
</defs>
</svg>
