<svg width="56" height="56" viewBox="0 0 56 56" fill="none" xmlns="http://www.w3.org/2000/svg">
<rect width="56" height="56" fill="#E5E5E5"/>
<rect x="-3850" y="-68384" width="31369" height="83337" stroke="black" stroke-width="40"/>
<rect width="1920" height="1080" transform="translate(-596 -360)" fill="white"/>
<g filter="url(#filter0_d_1820_40007)">
<rect x="-8" y="-8" width="745" height="72" rx="8" fill="white"/>
</g>
<circle cx="28" cy="28" r="27.5" fill="white" stroke="#D3D4D8"/>
<g clip-path="url(#clip0_1820_40007)">
<path d="M12.456 24.1495L6 32.843H7.97831L12.7435 25.9253L13.6658 31.3602L10.2241 31.3871L13.9132 32.843H16.1329L14.2084 24.1495H12.456ZM41.7894 24.4155C40.929 24.1543 40.0345 24.0144 39.1332 24C37.0504 24 35.4763 24.9626 35.4763 26.5486C35.4763 27.5635 36.0989 28.136 37.4746 29.0463C38.5045 29.6965 38.9103 30.0598 38.9103 30.6323C38.9103 31.127 38.5322 31.9073 37.1503 31.9073C36.0927 31.9073 35.0367 31.2825 34.82 31.127C34.7124 31.0224 34.2789 30.8146 34.2236 31.2048L34.0068 32.3483C34.0068 32.4783 34.0068 32.5306 34.1421 32.5829C34.7124 32.8176 36.2019 32.9985 37.2579 32.9985C40.509 32.9985 41.0239 31.0478 41.0239 30.3199C41.0239 29.1241 40.1016 28.4469 39.2639 27.9013C38.1525 27.1988 37.5561 26.7563 37.5561 26.1584C37.5561 25.9507 37.6376 25.1121 39.0195 25.1121C39.7385 25.0981 40.4418 25.318 41.0178 25.7369C41.1269 25.8146 41.5865 26.1001 41.668 25.5546L41.857 24.6442C41.8693 24.5456 41.8693 24.4679 41.7894 24.4155ZM21.6328 27.9013C20.5214 27.1988 19.925 26.7563 19.925 26.1584C19.925 25.9507 20.0065 25.1121 21.3884 25.1121C22.1075 25.0981 22.8108 25.318 23.3867 25.7369C23.4958 25.8146 23.9554 26.1001 24.0369 25.5546L24.2275 24.6442C24.2275 24.5396 24.2275 24.4619 24.146 24.4096C23.2878 24.151 22.3959 24.0131 21.4975 24C19.4101 24 17.836 24.9626 17.836 26.5486C17.836 27.5635 18.4601 28.136 19.8681 29.0463C20.8704 29.6965 21.2777 30.0598 21.2777 30.6323C21.2777 31.127 20.898 31.9073 19.5161 31.9073C18.4863 31.9073 17.4302 31.2825 17.1858 31.127C17.0782 31.0224 16.6447 30.8146 16.5894 31.2048L16.3757 32.3483C16.3757 32.4783 16.3757 32.5306 16.5126 32.5829C17.1074 32.8191 18.5708 32.9985 19.6268 32.9985C22.8779 32.9985 23.4205 31.0478 23.4205 30.3199C23.4205 29.1241 22.4721 28.4469 21.6328 27.9013ZM31.1631 24.5979C30.3884 24.2214 29.5373 24.0172 28.6714 24C26.5978 24 25.0191 24.9626 25.0191 26.5486C25.0191 27.5635 25.634 28.136 27.0512 29.0463C28.0796 29.6965 28.4869 30.0598 28.4869 30.6323C28.4869 31.127 28.1073 31.9073 26.7254 31.9073C25.6693 31.9073 24.5857 31.2825 24.3412 31.1001C24.2336 31.0224 23.8263 30.8146 23.7448 31.2048L23.5558 32.3483C23.5558 32.4783 23.5558 32.5306 23.7187 32.5829C24.2921 32.8191 25.7769 32.9985 26.8068 32.9985C30.0856 32.9985 30.5944 31.0478 30.5944 30.3199C30.5944 29.1241 29.6475 28.4469 28.8343 27.9013C27.6968 27.1988 27.1266 26.7563 27.1266 26.1584C27.1266 25.9507 27.208 25.1121 28.5638 25.1121C29.6475 25.1121 32.3836 26.5426 32.3836 26.5426L31.1631 32.8625H33.332L34.6586 25.997L31.1631 24.5979ZM42.3843 24.2078L42.1952 25.3259H45.3372L43.8 32.8684H45.9397L47.4307 25.3782H50.7894L51.0061 24.2078H42.3843ZM35.0429 24H31.1139L34.7723 25.4559L35.0429 24Z" fill="#0356E8"/>
</g>
<defs>
<filter id="filter0_d_1820_40007" x="-32" y="-28" width="793" height="120" filterUnits="userSpaceOnUse" color-interpolation-filters="sRGB">
<feFlood flood-opacity="0" result="BackgroundImageFix"/>
<feColorMatrix in="SourceAlpha" type="matrix" values="0 0 0 0 0 0 0 0 0 0 0 0 0 0 0 0 0 0 127 0" result="hardAlpha"/>
<feOffset dy="4"/>
<feGaussianBlur stdDeviation="12"/>
<feComposite in2="hardAlpha" operator="out"/>
<feColorMatrix type="matrix" values="0 0 0 0 0 0 0 0 0 0 0 0 0 0 0 0 0 0 0.1 0"/>
<feBlend mode="normal" in2="BackgroundImageFix" result="effect1_dropShadow_1820_40007"/>
<feBlend mode="normal" in="SourceGraphic" in2="effect1_dropShadow_1820_40007" result="shape"/>
</filter>
<clipPath id="clip0_1820_40007">
<rect width="45" height="13.3228" fill="white" transform="translate(6 24)"/>
</clipPath>
</defs>
</svg>