<?xml version="1.0" encoding="utf-8"?>
<svg viewBox="0 0 32 32" fill="#29578A" height="32" width="32" xmlns="http://www.w3.org/2000/svg">
  <circle cx="16" cy="16" r="16" fill="#F0F1F3"/>
  <path d="M 34 7 L 8 7 C 6.895 7 6 7.895 6 9 L 6 13 C 6 14.105 6.895 15 8 15 L 24 15 C 25.105 15 26 14.105 26 13 L 26 9 C 26 7.895 25.105 7 24 7 L 34 7 Z M 8 13 L 8 9 L 24 9 L 24 13 L 8 13 Z M 24 17 L 8 17 C 6.895 17 6 17.895 6 19 L 6 23 C 6 24.105 6.895 25 8 25 L 24 25 C 25.105 25 26 24.105 26 23 L 26 19 C 26 17.895 25.105 17 24 17 Z M 8 23 L 8 19 L 24 19 L 24 23 L 8 23 Z"/>
  <path d="M 21 10 L 23 10 L 23 12 L 21 12 L 21 10 Z M 18 10 L 20 10 L 20 12 L 18 12 L 18 10 Z M 21 20 L 23 20 L 23 22 L 21 22 L 21 20 Z M 18 20 L 20 20 L 20 22 L 18 22 L 18 20 Z"/>
</svg>