<svg width="40" height="40" viewBox="0 0 54 54" fill="#22A16F">
    <path d="M27 0.333332C41.7276 0.333332 53.6667 12.2724 53.6667 27C53.6667 41.7276 41.7276 53.6667 27 53.6667C12.2724 53.6667 0.333332 41.7276 0.333332 27C0.333332 12.2724 12.2724 0.333332 27 0.333332ZM38.5118 18.4882C37.9044 17.8807 36.9446 17.8402 36.2901 18.3667L36.1548 18.4882L22.6667 31.9763L17.8452 27.1548C17.1943 26.5039 16.139 26.5039 15.4882 27.1548C14.8807 27.7623 14.8402 28.7221 15.3667 29.3765L15.4882 29.5118L21.4882 35.5118C22.0956 36.1193 23.0554 36.1598 23.7099 35.6333L23.8452 35.5118L38.5118 20.8452C39.1627 20.1943 39.1627 19.139 38.5118 18.4882Z" fill="#22A16F"/>
</svg>
