<svg width="33" height="32" viewBox="0 0 33 32" fill="none" xmlns="http://www.w3.org/2000/svg">
<g clip-path="url(#clip0_1889_60075)">
<path d="M32.3314 13.6397C32.0169 12.0296 31.4158 10.4892 30.5567 9.09168C30.3167 8.65968 30.0007 8.25168 29.7314 7.86634C27.9314 5.34234 26.5074 4.49301 26.2327 4.34234C25.9888 4.16705 25.7389 4.00029 25.4834 3.84234C23.1594 2.39301 21.6594 2.19301 21.6594 2.19301C20.7282 1.80754 19.7555 1.53104 18.7607 1.36901C17.0861 1.16901 15.6861 1.19434 14.4621 1.36901C14.6621 1.01834 14.8367 0.894342 14.8861 0.869008C14.9181 0.869008 14.9087 0.869008 14.8861 0.869008C14.2861 0.918342 13.5621 1.31834 12.9127 1.71834C13.3621 0.843675 14.3127 0.345008 14.4367 0.269008H14.4621C13.7114 0.219675 11.5874 0.694342 9.76341 2.71834C4.09007 5.09301 0.691406 10.293 0.691406 15.9637C0.691406 20.2623 2.36607 23.361 4.19007 25.4103C5.91407 27.285 7.81407 28.285 8.71407 28.5597C8.80741 28.597 9.01407 28.609 9.01407 28.609C9.03807 28.5343 7.86341 26.6597 7.33941 24.4103C8.38874 25.485 9.63807 26.3103 11.0381 26.4597C11.1874 26.4863 10.5381 25.6863 9.83807 24.6357L10.7874 24.961L21.2101 28.4343C20.1847 29.4837 18.8101 30.509 16.9354 31.4077C16.9354 31.4077 21.1354 31.0583 23.2087 28.7343C22.3594 30.6837 20.0354 31.7343 20.0354 31.7343C21.7341 31.4837 26.2327 30.1583 29.0821 26.585C32.3314 22.537 33.3061 18.7383 32.3314 13.6383V13.6397ZM24.0341 23.1117C23.7087 24.685 23.0341 26.4357 21.5101 28.1103L3.09007 21.9863C2.56607 20.313 2.31674 18.3637 2.46607 16.089C2.79007 16.689 3.76474 17.189 4.36474 17.213C2.96474 14.089 3.51541 11.9397 4.56474 10.5157C5.02394 11.1897 5.48216 11.8643 5.93941 12.5397V12.3903C5.96474 12.1903 5.99007 12.0397 6.03941 11.8903C5.56474 11.1903 5.16474 10.5903 4.86607 10.1663C5.38177 9.58716 5.98949 9.09702 6.66474 8.71568C6.68874 8.99168 6.73941 9.24101 6.81407 9.54101C6.91407 9.96634 6.93941 10.5903 6.88874 11.0903V11.0663C6.88874 11.1663 6.86474 11.2663 6.83941 11.3663C6.81407 11.4663 6.53941 11.741 6.46474 12.4663C6.38874 13.241 6.66474 13.6663 6.93941 13.9903C7.26341 13.6903 7.86341 12.941 8.96341 12.5157C10.0634 12.0663 10.7874 11.417 12.1874 10.717C13.0127 10.2917 13.8874 10.3423 14.9874 10.3917C16.9607 10.7423 19.5607 11.4423 21.9847 11.5663C22.5341 12.8663 22.7581 14.7397 22.7581 14.7903C22.7581 14.965 22.7847 15.1157 22.7847 15.265C18.4847 16.8903 13.4381 18.7397 11.3127 19.289C11.1381 19.3397 9.28874 16.665 7.56341 14.1157C7.53941 14.1663 7.48874 14.1903 7.46341 14.2157C7.41407 14.2663 7.36341 14.3157 7.33941 14.3663H7.18874C9.03807 17.0903 11.0127 19.913 11.2127 19.913C13.0874 19.2397 18.6847 17.3143 22.7594 15.9157C22.7327 18.989 21.9847 20.1383 21.9847 20.1383C21.9847 20.1383 23.0087 19.7383 24.0581 18.689C24.0581 19.5383 23.8341 21.7383 22.0581 23.8623C22.0581 23.8623 22.9834 23.613 24.0327 23.113L24.0341 23.1117Z" fill="#29578A"/>
</g>
<defs>
<clipPath id="clip0_1889_60075">
<rect width="32" height="32" fill="white" transform="translate(0.691406)"/>
</clipPath>
</defs>
</svg>
