<svg width="24" height="24" viewBox="0 0 24 24" fill="none" xmlns="http://www.w3.org/2000/svg">
<path d="M20.5219 6.658C21.0138 7.80671 21.1343 9.08051 20.8663 10.3011C20.5983 11.5216 19.9554 12.6278 19.0275 13.4648C18.0996 14.3018 16.9331 14.8277 15.6915 14.9688C14.4499 15.1099 13.1952 14.8592 12.1031 14.2518V14.2518L6.84375 20.3455C6.42106 20.7682 5.84777 21.0057 5.25 21.0057C4.65222 21.0057 4.07894 20.7682 3.65625 20.3455C3.23356 19.9228 2.99609 19.3495 2.99609 18.7518C2.99609 18.154 3.23356 17.5807 3.65625 17.158L9.75 11.8986C9.14258 10.8066 8.89188 9.55188 9.03299 8.31025C9.1741 7.06862 9.69996 5.90219 10.5369 4.97428C11.3739 4.04637 12.4801 3.40342 13.7007 3.13545C14.9212 2.86749 16.195 2.98792 17.3437 3.47988L13.4062 7.408L13.9406 10.0611L16.5937 10.5955L20.5219 6.658Z" stroke="#617B8E" stroke-linecap="round" stroke-linejoin="round"/>
</svg>