<?xml version="1.0"?>
<svg version="1.1" xmlns="http://www.w3.org/2000/svg" width="194px" height="64px" style="border: dashed 2px #aaa"><path fill="#" d="M30.362,28.895l0,0.138l-0.161,1.38c-0.046,0.414-0.299,0.483-0.782,0.483l-5.773,0l0,4.163l5.313,0c0.437,0,0.575,0.184,0.575,0.506l0,1.311c0,0.391-0.161,0.552-0.552,0.552l-5.336,0l0,6.417c0,0.414-0.161,0.575-0.552,0.575l-1.794,0c-0.46,0-0.621-0.115-0.621-0.621l0-14.72c0-0.368,0.161-0.575,0.529-0.575l8.671,0c0.345,0,0.483,0.115,0.483,0.391z M44.8865,43.983c0,0.276-0.184,0.437-0.46,0.437l-1.104,0c-1.196,0-1.725-0.575-1.886-1.357l-0.046,0c-0.575,0.851-2.07,1.633-3.335,1.633c-3.243,0-4.715-2.668-4.715-5.658c0-3.979,2.392-6.072,4.968-6.072c1.219,0,2.369,0.552,2.944,1.334l0.046-0.621c0.023-0.253,0.207-0.414,0.483-0.414l1.61,0c0.299,0,0.483,0.161,0.483,0.506l0,7.981c0,0.322,0.046,0.552,0.138,0.667c0.069,0.069,0.161,0.092,0.276,0.092l0.184,0c0.276,0,0.414,0.092,0.414,0.391l0,1.081z M41.0915,40.855l0-4.439c-0.46-0.667-1.403-1.173-2.277-1.173c-1.403,0-2.599,1.196-2.599,3.611c0,1.932,0.736,3.565,2.438,3.565c1.127,0,2.093-0.851,2.438-1.564z M58.767,38.854c0,3.174-1.633,5.842-5.06,5.842c-1.035,0-2.277-0.598-2.921-1.311l-0.092,0.759c-0.023,0.207-0.207,0.276-0.506,0.276l-1.38,0c-0.391,0-0.552-0.184-0.552-0.575l0-14.996c0-0.368,0.092-0.575,0.46-0.621l1.702-0.23c0.092-0.023,0.161-0.023,0.23-0.023c0.23,0,0.391,0.092,0.391,0.46l0,5.658c0.736-0.644,1.84-1.127,3.036-1.127c1.265,0,2.208,0.414,2.944,1.081c1.219,1.081,1.748,2.875,1.748,4.807z M55.892,38.877c0-1.863-0.575-3.565-2.484-3.565c-0.851,0-1.748,0.46-2.369,1.035l0,4.922c0.552,0.621,1.403,1.127,2.254,1.127c2.001,0,2.599-1.725,2.599-3.519z M68.6915,33.357c0,0.069,0,0.138-0.023,0.207l-0.253,1.633c-0.023,0.207-0.138,0.299-0.322,0.299l-0.092,0c-0.184-0.046-0.414-0.069-0.621-0.069c-0.782,0-1.633,0.414-2.208,1.104l0,7.314c0,0.368-0.161,0.575-0.552,0.575l-1.679,0c-0.368,0-0.552-0.184-0.552-0.575l0-7.176l0-2.829c0-0.46,0.23-0.575,0.575-0.575l1.472,0c0.368,0,0.575,0.115,0.575,0.437l0.023,0.736c0.713-0.897,1.495-1.472,2.783-1.472c0.184,0,0.437,0.046,0.644,0.092c0.161,0.046,0.23,0.115,0.23,0.299z M74.798,30.344c0,0.897-0.782,1.449-1.541,1.449s-1.564-0.506-1.564-1.426s0.759-1.472,1.564-1.472c0.782,0,1.541,0.529,1.541,1.449z M74.66,43.845c0,0.414-0.184,0.575-0.575,0.575l-1.61,0c-0.414,0-0.598-0.161-0.598-0.575l0-10.051c0-0.391,0.23-0.529,0.598-0.529l1.61,0c0.368,0,0.575,0.115,0.575,0.529l0,10.051z M87.4595,43.638c0,0.184-0.115,0.276-0.322,0.368c-1.104,0.506-2.116,0.69-3.335,0.69c-3.542,0-5.497-2.208-5.497-5.75c0-3.565,2.139-5.98,5.704-5.98c1.035,0,2.116,0.207,3.082,0.644c0.184,0.092,0.276,0.138,0.276,0.322c0,0.069-0.023,0.207-0.046,0.276l-0.299,1.219c-0.046,0.207-0.138,0.322-0.276,0.322c-0.069,0-0.161-0.046-0.253-0.092c-0.667-0.276-1.403-0.506-2.208-0.506c-1.978,0-3.105,1.403-3.105,3.657c0,2.208,1.012,3.726,2.99,3.726c0.989,0,1.61-0.184,2.415-0.506c0.069-0.023,0.161-0.069,0.23-0.069c0.138,0,0.23,0.115,0.276,0.276l0.299,1.012c0.046,0.161,0.069,0.299,0.069,0.391z M107.711,43.799c0.023,0.391-0.092,0.621-0.529,0.621l-1.863,0c-0.483,0-0.575-0.23-0.598-0.759l-0.322-9.338l-0.046,0l-3.91,9.683c-0.138,0.368-0.368,0.414-0.621,0.414l-0.805,0c-0.345,0-0.552-0.069-0.713-0.437l-4.347-9.66l-0.046,0l-0.207,9.522c0,0.506-0.207,0.575-0.621,0.575l-1.564,0c-0.437,0-0.621-0.161-0.598-0.598l0.575-14.697c0.023-0.483,0.184-0.621,0.552-0.621l1.357,0c0.46,0,0.621,0.161,0.782,0.506l5.313,11.362l0.046,0l4.853-11.362c0.138-0.345,0.322-0.506,0.736-0.506l1.357,0c0.368,0,0.506,0.138,0.529,0.506z M122.5805,38.831c0,3.312-2.024,5.865-5.612,5.865c-3.749,0-5.474-2.53-5.474-5.888c0-3.312,2.024-5.842,5.612-5.842c3.749,0,5.474,2.484,5.474,5.865z M119.7055,38.831c0-1.886-0.598-3.68-2.622-3.68c-2.047,0-2.714,1.771-2.714,3.611c0,1.886,0.575,3.749,2.622,3.749c2.024,0,2.714-1.794,2.714-3.68z M135.61,33.587c0,0.069-0.023,0.138-0.046,0.23l-4.025,10.166c-0.138,0.345-0.322,0.437-0.667,0.437l-1.196,0c-0.345,0-0.575-0.092-0.69-0.414l-3.956-10.258c-0.023-0.069-0.046-0.138-0.046-0.207c0-0.184,0.115-0.276,0.414-0.276l2.024,0c0.391,0,0.575,0.161,0.667,0.46l1.748,5.359c0.23,0.69,0.437,1.449,0.575,1.955l0.023,0c0.115-0.437,0.345-1.242,0.552-1.886l1.794-5.405c0.115-0.391,0.299-0.483,0.713-0.483l1.656,0c0.299,0,0.46,0.115,0.46,0.322z M141.7855,30.344c0,0.897-0.782,1.449-1.541,1.449s-1.564-0.506-1.564-1.426s0.759-1.472,1.564-1.472c0.782,0,1.541,0.529,1.541,1.449z M141.6475,43.845c0,0.414-0.184,0.575-0.575,0.575l-1.61,0c-0.414,0-0.598-0.161-0.598-0.575l0-10.051c0-0.391,0.23-0.529,0.598-0.529l1.61,0c0.368,0,0.575,0.115,0.575,0.529l0,10.051z M155.804,38.808c0,0.552-0.184,0.667-0.759,0.667l-6.739,0c0.184,1.771,1.472,2.99,3.289,2.99c0.966,0,1.978-0.23,2.829-0.552c0.092-0.023,0.161-0.069,0.253-0.069c0.161,0,0.276,0.092,0.322,0.276l0.322,1.173c0.023,0.115,0.046,0.207,0.046,0.276c0,0.161-0.092,0.276-0.368,0.391c-1.127,0.506-2.668,0.736-3.864,0.736c-3.611,0-5.75-2.3-5.75-5.888c0-3.45,2.277-5.842,5.704-5.842c1.403,0,2.553,0.529,3.358,1.38c1.058,1.104,1.357,2.553,1.357,4.117l0,0.345z M153.067,37.658l0-0.253c-0.046-1.196-0.736-2.3-2.139-2.3c-1.495,0-2.392,1.196-2.576,2.553l4.715,0z M166.6945,41.131c0,2.415-2.093,3.565-4.439,3.565c-1.196,0-2.507-0.345-3.542-0.805c-0.207-0.092-0.276-0.23-0.276-0.368c0-0.069,0.023-0.138,0.046-0.207l0.368-1.173c0.069-0.23,0.184-0.322,0.322-0.322c0.069,0,0.138,0,0.253,0.046c1.012,0.414,2.093,0.713,2.898,0.713c1.012,0,1.702-0.46,1.702-1.219c0-0.644-0.437-0.989-1.38-1.357l-1.817-0.69c-1.311-0.483-2.369-1.495-2.369-3.059c0-2.254,2.116-3.289,4.163-3.289c1.104,0,2.185,0.184,3.335,0.69c0.184,0.092,0.276,0.184,0.276,0.322c0,0.069-0.023,0.138-0.046,0.23l-0.391,1.242c-0.046,0.161-0.161,0.253-0.322,0.253c-0.069,0-0.161-0.023-0.23-0.046c-0.759-0.299-1.748-0.552-2.484-0.552c-0.966,0-1.449,0.529-1.449,1.058c0,0.506,0.253,0.828,1.127,1.173l2.07,0.851c1.219,0.506,2.185,1.449,2.185,2.944z"/><path fill="#" d=""/></svg>
